<svg xmlns="http://www.w3.org/2000/svg" xmlns:xlink="http://www.w3.org/1999/xlink" width="2000" zoomAndPan="magnify" viewBox="0 0 1500 1499.999933" height="2000" preserveAspectRatio="xMidYMid meet" version="1.0"><defs><g/><clipPath id="1ce59f36d4"><path d="M 164 641 L 307 641 L 307 833 L 164 833 Z M 164 641 " clip-rule="nonzero"/></clipPath><clipPath id="afc5e9be2b"><path d="M 257.355469 628.226562 L 319.28125 664.679688 L 212.773438 845.621094 L 150.847656 809.167969 Z M 257.355469 628.226562 " clip-rule="nonzero"/></clipPath><clipPath id="8922acc4e5"><path d="M 288.320312 646.453125 C 296.53125 651.285156 302.484375 659.183594 304.875 668.410156 C 307.261719 677.632812 305.890625 687.429688 301.054688 695.640625 L 231.046875 814.578125 C 226.210938 822.789062 218.3125 828.746094 209.089844 831.132812 C 199.863281 833.523438 190.066406 832.148438 181.855469 827.316406 C 173.644531 822.480469 167.6875 814.582031 165.300781 805.359375 C 162.910156 796.132812 164.285156 786.339844 169.117188 778.125 L 239.128906 659.1875 C 243.964844 650.976562 251.859375 645.023438 261.085938 642.632812 C 270.3125 640.246094 280.105469 641.617188 288.320312 646.453125 Z M 288.320312 646.453125 " clip-rule="nonzero"/></clipPath><clipPath id="32ee525a68"><path d="M 0 0 L 143 0 L 143 192 L 0 192 Z M 0 0 " clip-rule="nonzero"/></clipPath><clipPath id="abc40d4414"><path d="M 93.355469 -12.773438 L 155.28125 23.679688 L 48.773438 204.621094 L -13.152344 168.167969 Z M 93.355469 -12.773438 " clip-rule="nonzero"/></clipPath><clipPath id="31559f11d0"><path d="M 124.320312 5.453125 C 132.53125 10.285156 138.484375 18.183594 140.875 27.410156 C 143.261719 36.632812 141.890625 46.429688 137.054688 54.640625 L 67.046875 173.578125 C 62.210938 181.789062 54.3125 187.746094 45.089844 190.132812 C 35.863281 192.523438 26.066406 191.148438 17.855469 186.316406 C 9.644531 181.480469 3.6875 173.582031 1.300781 164.359375 C -1.089844 155.132812 0.285156 145.339844 5.117188 137.125 L 75.128906 18.1875 C 79.964844 9.976562 87.859375 4.023438 97.085938 1.632812 C 106.3125 -0.753906 116.105469 0.617188 124.320312 5.453125 Z M 124.320312 5.453125 " clip-rule="nonzero"/></clipPath><clipPath id="14b26d87d8"><rect x="0" width="143" y="0" height="192"/></clipPath><clipPath id="54cf6ca215"><path d="M 91.40625 641.308594 L 165.441406 641.308594 L 165.441406 715.339844 L 91.40625 715.339844 Z M 91.40625 641.308594 " clip-rule="nonzero"/></clipPath><clipPath id="24cc14d2c8"><path d="M 128.421875 641.308594 C 107.980469 641.308594 91.40625 657.878906 91.40625 678.324219 C 91.40625 698.765625 107.980469 715.339844 128.421875 715.339844 C 148.867188 715.339844 165.441406 698.765625 165.441406 678.324219 C 165.441406 657.878906 148.867188 641.308594 128.421875 641.308594 Z M 128.421875 641.308594 " clip-rule="nonzero"/></clipPath><clipPath id="9545e6048a"><path d="M 0.40625 0.308594 L 74.441406 0.308594 L 74.441406 74.339844 L 0.40625 74.339844 Z M 0.40625 0.308594 " clip-rule="nonzero"/></clipPath><clipPath id="a1045ae77e"><path d="M 37.421875 0.308594 C 16.980469 0.308594 0.40625 16.878906 0.40625 37.324219 C 0.40625 57.765625 16.980469 74.339844 37.421875 74.339844 C 57.867188 74.339844 74.441406 57.765625 74.441406 37.324219 C 74.441406 16.878906 57.867188 0.308594 37.421875 0.308594 Z M 37.421875 0.308594 " clip-rule="nonzero"/></clipPath><clipPath id="f2787ece4d"><rect x="0" width="75" y="0" height="75"/></clipPath><clipPath id="f35f62b3fb"><path d="M 20 45 L 149 45 L 149 213.679688 L 20 213.679688 Z M 20 45 " clip-rule="nonzero"/></clipPath><clipPath id="46817b857a"><rect x="0" width="1090" y="0" height="214"/></clipPath></defs><g clip-path="url(#1ce59f36d4)"><g clip-path="url(#afc5e9be2b)"><g clip-path="url(#8922acc4e5)"><g transform="matrix(1, 0, 0, 1, 164, 641)"><g clip-path="url(#14b26d87d8)"><g clip-path="url(#32ee525a68)"><g clip-path="url(#abc40d4414)"><g clip-path="url(#31559f11d0)"><path fill="#cb6ce6" d="M 93.355469 -12.773438 L 155.28125 23.679688 L 48.773438 204.621094 L -13.152344 168.167969 Z M 93.355469 -12.773438 " fill-opacity="1" fill-rule="nonzero"/></g></g></g></g></g></g></g></g><g clip-path="url(#54cf6ca215)"><g clip-path="url(#24cc14d2c8)"><g transform="matrix(1, 0, 0, 1, 91, 641)"><g clip-path="url(#f2787ece4d)"><g clip-path="url(#9545e6048a)"><g clip-path="url(#a1045ae77e)"><path fill="#1b17ff" d="M 0.40625 0.308594 L 74.441406 0.308594 L 74.441406 74.339844 L 0.40625 74.339844 Z M 0.40625 0.308594 " fill-opacity="1" fill-rule="nonzero"/></g></g></g></g></g></g><g transform="matrix(1, 0, 0, 1, 359, 640)"><g clip-path="url(#46817b857a)"><g clip-path="url(#f35f62b3fb)"><g fill="#000000" fill-opacity="1"><g transform="translate(0.493752, 171.49991)"><g><path d="M 40.578125 41.90625 L 19.859375 41.90625 L 19.859375 -122.8125 L 39.734375 -122.8125 L 39.734375 -96.5625 C 42.617188 -102.257812 46.390625 -107.335938 51.046875 -111.796875 C 55.703125 -116.253906 61.097656 -119.765625 67.234375 -122.328125 C 73.378906 -124.898438 79.984375 -126.1875 87.046875 -126.1875 C 95.722656 -126.1875 103.734375 -124.519531 111.078125 -121.1875 C 118.421875 -117.851562 124.84375 -113.21875 130.34375 -107.28125 C 135.84375 -101.34375 140.097656 -94.457031 143.109375 -86.625 C 146.117188 -78.800781 147.625 -70.394531 147.625 -61.40625 C 147.625 -52.414062 146.097656 -43.988281 143.046875 -36.125 C 139.992188 -28.257812 135.738281 -21.351562 130.28125 -15.40625 C 124.820312 -9.46875 118.4375 -4.832031 111.125 -1.5 C 103.820312 1.820312 95.878906 3.484375 87.296875 3.484375 C 80.554688 3.484375 74.132812 2.300781 68.03125 -0.0625 C 61.925781 -2.425781 56.484375 -5.796875 51.703125 -10.171875 C 46.929688 -14.546875 43.101562 -19.703125 40.21875 -25.640625 L 40.578125 -11.796875 Z M 83.6875 -15.765625 C 89.625 -15.765625 95.203125 -16.867188 100.421875 -19.078125 C 105.640625 -21.285156 110.234375 -24.414062 114.203125 -28.46875 C 118.179688 -32.53125 121.3125 -37.347656 123.59375 -42.921875 C 125.882812 -48.503906 127.03125 -54.664062 127.03125 -61.40625 C 127.03125 -68.070312 125.90625 -74.171875 123.65625 -79.703125 C 121.40625 -85.242188 118.289062 -90.039062 114.3125 -94.09375 C 110.34375 -98.144531 105.75 -101.296875 100.53125 -103.546875 C 95.320312 -105.796875 89.707031 -106.921875 83.6875 -106.921875 C 77.664062 -106.921875 72.046875 -105.753906 66.828125 -103.421875 C 61.609375 -101.097656 57.03125 -97.847656 53.09375 -93.671875 C 49.164062 -89.503906 46.078125 -84.671875 43.828125 -79.171875 C 41.578125 -73.671875 40.453125 -67.75 40.453125 -61.40625 C 40.453125 -54.90625 41.578125 -48.863281 43.828125 -43.28125 C 46.078125 -37.707031 49.207031 -32.875 53.21875 -28.78125 C 57.226562 -24.6875 61.84375 -21.492188 67.0625 -19.203125 C 72.28125 -16.910156 77.820312 -15.765625 83.6875 -15.765625 Z M 83.6875 -15.765625 "/></g></g></g></g><g fill="#000000" fill-opacity="1"><g transform="translate(143.422023, 171.49991)"><g><path d="M 72.609375 3.484375 C 64.421875 3.484375 56.914062 2.320312 50.09375 0 C 43.269531 -2.320312 37.347656 -5.929688 32.328125 -10.828125 C 27.304688 -15.734375 23.410156 -22.015625 20.640625 -29.671875 C 17.878906 -37.335938 16.5 -46.507812 16.5 -57.1875 L 16.5 -122.8125 L 37.078125 -122.8125 L 37.078125 -57.796875 C 37.078125 -43.984375 40.144531 -33.566406 46.28125 -26.546875 C 52.425781 -19.523438 61.117188 -16.015625 72.359375 -16.015625 C 83.679688 -16.015625 92.390625 -19.523438 98.484375 -26.546875 C 104.585938 -33.566406 107.640625 -43.984375 107.640625 -57.796875 L 107.640625 -122.8125 L 128.359375 -122.8125 L 128.359375 -57.1875 C 128.359375 -46.507812 126.972656 -37.335938 124.203125 -29.671875 C 121.429688 -22.015625 117.535156 -15.734375 112.515625 -10.828125 C 107.503906 -5.929688 101.601562 -2.320312 94.8125 0 C 88.03125 2.320312 80.628906 3.484375 72.609375 3.484375 Z M 72.609375 3.484375 "/></g></g></g><g fill="#000000" fill-opacity="1"><g transform="translate(273.949936, 171.49991)"><g><path d="M 60.8125 3.484375 C 52.21875 3.484375 44.707031 2.335938 38.28125 0.046875 C 31.863281 -2.234375 26.523438 -5.316406 22.265625 -9.203125 C 18.015625 -13.097656 14.828125 -17.515625 12.703125 -22.453125 C 10.578125 -27.390625 9.515625 -32.46875 9.515625 -37.6875 L 29.5 -37.5625 C 29.582031 -33.144531 30.847656 -29.085938 33.296875 -25.390625 C 35.742188 -21.703125 39.296875 -18.773438 43.953125 -16.609375 C 48.609375 -14.441406 54.304688 -13.359375 61.046875 -13.359375 C 70.359375 -13.359375 77.378906 -15.1875 82.109375 -18.84375 C 86.847656 -22.5 89.21875 -27.414062 89.21875 -33.59375 C 89.21875 -38.164062 87.972656 -41.753906 85.484375 -44.359375 C 82.992188 -46.972656 79.441406 -48.984375 74.828125 -50.390625 C 70.210938 -51.796875 64.695312 -53.019531 58.28125 -54.0625 C 52.582031 -54.945312 47.144531 -56.171875 41.96875 -57.734375 C 36.789062 -59.296875 32.191406 -61.441406 28.171875 -64.171875 C 24.160156 -66.898438 21.007812 -70.390625 18.71875 -74.640625 C 16.4375 -78.898438 15.296875 -84.125 15.296875 -90.3125 C 15.296875 -97.050781 16.921875 -103.128906 20.171875 -108.546875 C 23.421875 -113.960938 28.316406 -118.273438 34.859375 -121.484375 C 41.398438 -124.703125 49.523438 -126.3125 59.234375 -126.3125 C 68.710938 -126.3125 76.984375 -124.722656 84.046875 -121.546875 C 91.109375 -118.378906 96.601562 -114.023438 100.53125 -108.484375 C 104.46875 -102.941406 106.4375 -96.601562 106.4375 -89.46875 L 86.09375 -89.46875 C 85.769531 -95.320312 83.257812 -100.035156 78.5625 -103.609375 C 73.863281 -107.179688 67.421875 -108.96875 59.234375 -108.96875 C 53.941406 -108.96875 49.566406 -108.144531 46.109375 -106.5 C 42.660156 -104.851562 40.070312 -102.644531 38.34375 -99.875 C 36.625 -97.101562 35.765625 -94.070312 35.765625 -90.78125 C 35.765625 -86.925781 36.625 -83.753906 38.34375 -81.265625 C 40.070312 -78.785156 43.082031 -76.757812 47.375 -75.1875 C 51.675781 -73.625 57.640625 -72.203125 65.265625 -70.921875 C 70.878906 -70.035156 76.375 -68.890625 81.75 -67.484375 C 87.132812 -66.078125 91.972656 -64.085938 96.265625 -61.515625 C 100.554688 -58.953125 103.96875 -55.503906 106.5 -51.171875 C 109.03125 -46.835938 110.296875 -41.335938 110.296875 -34.671875 C 110.296875 -26.328125 108.207031 -19.304688 104.03125 -13.609375 C 99.851562 -7.910156 94.050781 -3.632812 86.625 -0.78125 C 79.207031 2.0625 70.601562 3.484375 60.8125 3.484375 Z M 60.8125 3.484375 "/></g></g></g><g fill="#000000" fill-opacity="1"><g transform="translate(378.352819, 171.49991)"><g><path d="M 87.296875 3.484375 C 80.554688 3.484375 74.113281 2.28125 67.96875 -0.125 C 61.832031 -2.53125 56.332031 -5.941406 51.46875 -10.359375 C 46.613281 -14.773438 42.703125 -20.03125 39.734375 -26.125 L 39.734375 0 L 19.859375 0 L 19.859375 -169.53125 L 40.578125 -169.53125 L 40.578125 -113.78125 L 40.21875 -96.921875 C 42.945312 -102.460938 46.617188 -107.441406 51.234375 -111.859375 C 55.847656 -116.273438 61.203125 -119.765625 67.296875 -122.328125 C 73.398438 -124.898438 79.984375 -126.1875 87.046875 -126.1875 C 95.722656 -126.1875 103.734375 -124.519531 111.078125 -121.1875 C 118.421875 -117.851562 124.84375 -113.21875 130.34375 -107.28125 C 135.84375 -101.34375 140.097656 -94.457031 143.109375 -86.625 C 146.117188 -78.800781 147.625 -70.394531 147.625 -61.40625 C 147.625 -52.414062 146.097656 -43.988281 143.046875 -36.125 C 139.992188 -28.257812 135.738281 -21.351562 130.28125 -15.40625 C 124.820312 -9.46875 118.4375 -4.832031 111.125 -1.5 C 103.820312 1.820312 95.878906 3.484375 87.296875 3.484375 Z M 83.6875 -15.765625 C 89.625 -15.765625 95.203125 -16.867188 100.421875 -19.078125 C 105.640625 -21.285156 110.234375 -24.414062 114.203125 -28.46875 C 118.179688 -32.53125 121.3125 -37.347656 123.59375 -42.921875 C 125.882812 -48.503906 127.03125 -54.664062 127.03125 -61.40625 C 127.03125 -68.070312 125.90625 -74.171875 123.65625 -79.703125 C 121.40625 -85.242188 118.289062 -90.039062 114.3125 -94.09375 C 110.34375 -98.144531 105.75 -101.296875 100.53125 -103.546875 C 95.320312 -105.796875 89.707031 -106.921875 83.6875 -106.921875 C 77.664062 -106.921875 72.046875 -105.753906 66.828125 -103.421875 C 61.609375 -101.097656 57.03125 -97.847656 53.09375 -93.671875 C 49.164062 -89.503906 46.078125 -84.671875 43.828125 -79.171875 C 41.578125 -73.671875 40.453125 -67.75 40.453125 -61.40625 C 40.453125 -54.90625 41.578125 -48.863281 43.828125 -43.28125 C 46.078125 -37.707031 49.207031 -32.875 53.21875 -28.78125 C 57.226562 -24.6875 61.84375 -21.492188 67.0625 -19.203125 C 72.28125 -16.910156 77.820312 -15.765625 83.6875 -15.765625 Z M 83.6875 -15.765625 "/></g></g></g><g fill="#000000" fill-opacity="1"><g transform="translate(524.050101, 171.49991)"><g><path d="M 68.875 3.484375 C 60.445312 3.484375 52.640625 1.820312 45.453125 -1.5 C 38.265625 -4.832031 31.984375 -9.46875 26.609375 -15.40625 C 21.234375 -21.351562 17.039062 -28.257812 14.03125 -36.125 C 11.019531 -43.988281 9.515625 -52.414062 9.515625 -61.40625 C 9.515625 -70.394531 11.019531 -78.800781 14.03125 -86.625 C 17.039062 -94.457031 21.234375 -101.34375 26.609375 -107.28125 C 31.984375 -113.21875 38.265625 -117.851562 45.453125 -121.1875 C 52.640625 -124.519531 60.40625 -126.1875 68.75 -126.1875 C 76.132812 -126.1875 83 -124.984375 89.34375 -122.578125 C 95.6875 -120.171875 101.285156 -116.738281 106.140625 -112.28125 C 110.992188 -107.820312 114.785156 -102.546875 117.515625 -96.453125 L 117.515625 -122.8125 L 137.390625 -122.8125 L 137.390625 0 L 117.515625 0 L 117.515625 -26.125 C 114.785156 -20.101562 110.992188 -14.863281 106.140625 -10.40625 C 101.285156 -5.957031 95.6875 -2.53125 89.34375 -0.125 C 83 2.28125 76.175781 3.484375 68.875 3.484375 Z M 73.453125 -15.890625 C 79.472656 -15.890625 85.109375 -17.03125 90.359375 -19.3125 C 95.617188 -21.601562 100.210938 -24.816406 104.140625 -28.953125 C 108.078125 -33.085938 111.171875 -37.925781 113.421875 -43.46875 C 115.671875 -49.007812 116.796875 -54.988281 116.796875 -61.40625 C 116.796875 -67.75 115.671875 -73.671875 113.421875 -79.171875 C 111.171875 -84.671875 108.054688 -89.484375 104.078125 -93.609375 C 100.109375 -97.742188 95.515625 -100.972656 90.296875 -103.296875 C 85.085938 -105.628906 79.507812 -106.796875 73.5625 -106.796875 C 67.539062 -106.796875 61.921875 -105.691406 56.703125 -103.484375 C 51.492188 -101.273438 46.878906 -98.125 42.859375 -94.03125 C 38.847656 -89.9375 35.71875 -85.140625 33.46875 -79.640625 C 31.226562 -74.148438 30.109375 -68.070312 30.109375 -61.40625 C 30.109375 -54.582031 31.25 -48.378906 33.53125 -42.796875 C 35.820312 -37.222656 38.953125 -32.425781 42.921875 -28.40625 C 46.898438 -24.394531 51.515625 -21.304688 56.765625 -19.140625 C 62.023438 -16.972656 67.585938 -15.890625 73.453125 -15.890625 Z M 73.453125 -15.890625 "/></g></g></g><g fill="#000000" fill-opacity="1"><g transform="translate(666.978372, 171.49991)"><g><path d="M 60.8125 3.484375 C 52.21875 3.484375 44.707031 2.335938 38.28125 0.046875 C 31.863281 -2.234375 26.523438 -5.316406 22.265625 -9.203125 C 18.015625 -13.097656 14.828125 -17.515625 12.703125 -22.453125 C 10.578125 -27.390625 9.515625 -32.46875 9.515625 -37.6875 L 29.5 -37.5625 C 29.582031 -33.144531 30.847656 -29.085938 33.296875 -25.390625 C 35.742188 -21.703125 39.296875 -18.773438 43.953125 -16.609375 C 48.609375 -14.441406 54.304688 -13.359375 61.046875 -13.359375 C 70.359375 -13.359375 77.378906 -15.1875 82.109375 -18.84375 C 86.847656 -22.5 89.21875 -27.414062 89.21875 -33.59375 C 89.21875 -38.164062 87.972656 -41.753906 85.484375 -44.359375 C 82.992188 -46.972656 79.441406 -48.984375 74.828125 -50.390625 C 70.210938 -51.796875 64.695312 -53.019531 58.28125 -54.0625 C 52.582031 -54.945312 47.144531 -56.171875 41.96875 -57.734375 C 36.789062 -59.296875 32.191406 -61.441406 28.171875 -64.171875 C 24.160156 -66.898438 21.007812 -70.390625 18.71875 -74.640625 C 16.4375 -78.898438 15.296875 -84.125 15.296875 -90.3125 C 15.296875 -97.050781 16.921875 -103.128906 20.171875 -108.546875 C 23.421875 -113.960938 28.316406 -118.273438 34.859375 -121.484375 C 41.398438 -124.703125 49.523438 -126.3125 59.234375 -126.3125 C 68.710938 -126.3125 76.984375 -124.722656 84.046875 -121.546875 C 91.109375 -118.378906 96.601562 -114.023438 100.53125 -108.484375 C 104.46875 -102.941406 106.4375 -96.601562 106.4375 -89.46875 L 86.09375 -89.46875 C 85.769531 -95.320312 83.257812 -100.035156 78.5625 -103.609375 C 73.863281 -107.179688 67.421875 -108.96875 59.234375 -108.96875 C 53.941406 -108.96875 49.566406 -108.144531 46.109375 -106.5 C 42.660156 -104.851562 40.070312 -102.644531 38.34375 -99.875 C 36.625 -97.101562 35.765625 -94.070312 35.765625 -90.78125 C 35.765625 -86.925781 36.625 -83.753906 38.34375 -81.265625 C 40.070312 -78.785156 43.082031 -76.757812 47.375 -75.1875 C 51.675781 -73.625 57.640625 -72.203125 65.265625 -70.921875 C 70.878906 -70.035156 76.375 -68.890625 81.75 -67.484375 C 87.132812 -66.078125 91.972656 -64.085938 96.265625 -61.515625 C 100.554688 -58.953125 103.96875 -55.503906 106.5 -51.171875 C 109.03125 -46.835938 110.296875 -41.335938 110.296875 -34.671875 C 110.296875 -26.328125 108.207031 -19.304688 104.03125 -13.609375 C 99.851562 -7.910156 94.050781 -3.632812 86.625 -0.78125 C 79.207031 2.0625 70.601562 3.484375 60.8125 3.484375 Z M 60.8125 3.484375 "/></g></g></g><g fill="#000000" fill-opacity="1"><g transform="translate(771.381255, 171.49991)"><g><path d="M 89.9375 0 L 67.3125 0 C 62.65625 0 58.035156 -0.597656 53.453125 -1.796875 C 48.878906 -3.003906 44.726562 -5.210938 41 -8.421875 C 37.269531 -11.640625 34.28125 -16.238281 32.03125 -22.21875 C 29.78125 -28.195312 28.65625 -35.960938 28.65625 -45.515625 L 28.65625 -104.640625 L 1.328125 -104.640625 L 1.328125 -122.8125 L 28.65625 -122.8125 L 28.65625 -159.296875 L 49.359375 -159.421875 L 49.359375 -122.8125 L 89.9375 -122.8125 L 89.9375 -104.640625 L 49.359375 -104.640625 L 49.359375 -44.546875 C 49.359375 -38.847656 49.976562 -34.210938 51.21875 -30.640625 C 52.46875 -27.066406 54.15625 -24.335938 56.28125 -22.453125 C 58.414062 -20.566406 60.785156 -19.28125 63.390625 -18.59375 C 66.003906 -17.914062 68.675781 -17.578125 71.40625 -17.578125 L 89.9375 -17.578125 Z M 89.9375 0 "/></g></g></g><g fill="#000000" fill-opacity="1"><g transform="translate(853.872824, 171.49991)"><g><path d="M 68.875 3.484375 C 60.445312 3.484375 52.640625 1.820312 45.453125 -1.5 C 38.265625 -4.832031 31.984375 -9.46875 26.609375 -15.40625 C 21.234375 -21.351562 17.039062 -28.257812 14.03125 -36.125 C 11.019531 -43.988281 9.515625 -52.414062 9.515625 -61.40625 C 9.515625 -70.394531 11.019531 -78.800781 14.03125 -86.625 C 17.039062 -94.457031 21.234375 -101.34375 26.609375 -107.28125 C 31.984375 -113.21875 38.265625 -117.851562 45.453125 -121.1875 C 52.640625 -124.519531 60.40625 -126.1875 68.75 -126.1875 C 76.132812 -126.1875 83 -124.984375 89.34375 -122.578125 C 95.6875 -120.171875 101.285156 -116.738281 106.140625 -112.28125 C 110.992188 -107.820312 114.785156 -102.546875 117.515625 -96.453125 L 117.515625 -122.8125 L 137.390625 -122.8125 L 137.390625 0 L 117.515625 0 L 117.515625 -26.125 C 114.785156 -20.101562 110.992188 -14.863281 106.140625 -10.40625 C 101.285156 -5.957031 95.6875 -2.53125 89.34375 -0.125 C 83 2.28125 76.175781 3.484375 68.875 3.484375 Z M 73.453125 -15.890625 C 79.472656 -15.890625 85.109375 -17.03125 90.359375 -19.3125 C 95.617188 -21.601562 100.210938 -24.816406 104.140625 -28.953125 C 108.078125 -33.085938 111.171875 -37.925781 113.421875 -43.46875 C 115.671875 -49.007812 116.796875 -54.988281 116.796875 -61.40625 C 116.796875 -67.75 115.671875 -73.671875 113.421875 -79.171875 C 111.171875 -84.671875 108.054688 -89.484375 104.078125 -93.609375 C 100.109375 -97.742188 95.515625 -100.972656 90.296875 -103.296875 C 85.085938 -105.628906 79.507812 -106.796875 73.5625 -106.796875 C 67.539062 -106.796875 61.921875 -105.691406 56.703125 -103.484375 C 51.492188 -101.273438 46.878906 -98.125 42.859375 -94.03125 C 38.847656 -89.9375 35.71875 -85.140625 33.46875 -79.640625 C 31.226562 -74.148438 30.109375 -68.070312 30.109375 -61.40625 C 30.109375 -54.582031 31.25 -48.378906 33.53125 -42.796875 C 35.820312 -37.222656 38.953125 -32.425781 42.921875 -28.40625 C 46.898438 -24.394531 51.515625 -21.304688 56.765625 -19.140625 C 62.023438 -16.972656 67.585938 -15.890625 73.453125 -15.890625 Z M 73.453125 -15.890625 "/></g></g></g><g fill="#000000" fill-opacity="1"><g transform="translate(996.801095, 171.49991)"><g><path d="M 89.9375 0 L 67.3125 0 C 62.65625 0 58.035156 -0.597656 53.453125 -1.796875 C 48.878906 -3.003906 44.726562 -5.210938 41 -8.421875 C 37.269531 -11.640625 34.28125 -16.238281 32.03125 -22.21875 C 29.78125 -28.195312 28.65625 -35.960938 28.65625 -45.515625 L 28.65625 -104.640625 L 1.328125 -104.640625 L 1.328125 -122.8125 L 28.65625 -122.8125 L 28.65625 -159.296875 L 49.359375 -159.421875 L 49.359375 -122.8125 L 89.9375 -122.8125 L 89.9375 -104.640625 L 49.359375 -104.640625 L 49.359375 -44.546875 C 49.359375 -38.847656 49.976562 -34.210938 51.21875 -30.640625 C 52.46875 -27.066406 54.15625 -24.335938 56.28125 -22.453125 C 58.414062 -20.566406 60.785156 -19.28125 63.390625 -18.59375 C 66.003906 -17.914062 68.675781 -17.578125 71.40625 -17.578125 L 89.9375 -17.578125 Z M 89.9375 0 "/></g></g></g></g></g></svg>